Coordinates
version=1
nRows=17
nColumns=24
inDegrees=yes

Units are S.I. units (second, meters, Newtons, ...)
Angles are in degrees.

endheader
time	pelvis_tilt	pelvis_list	pelvis_rotation	pelvis_tx	pelvis_ty	pelvis_tz	hip_flexion_r	hip_adduction_r	hip_rotation_r	knee_angle_r	ankle_angle_r	subtalar_angle_r	mtp_angle_r	hip_flexion_l	hip_adduction_l	hip_rotation_l	knee_angle_l	ankle_angle_l	subtalar_angle_l	mtp_angle_l	lumbar_extension	lumbar_bending	lumbar_rotation
      7.14000000	    -12.13628462	      8.22631598	      3.26175239	     -1.62248168	     -0.03088399	      2.03254528	     17.30884412	    -13.69103021	    -11.52980491	    -58.82062645	    -21.80793505	     -9.45298535	     25.92654900	     28.21791099	     13.30665628	     -3.78994466	    -19.36504075	     -4.25287458	     -5.14093072	     17.58707151	      8.07525838	    -10.46030729	     -3.86802227
      7.15000000	    -12.07265583	      8.24236310	      3.07953589	     -1.61011547	     -0.02877420	      2.03203910	     19.12430098	    -13.48347883	    -10.55807931	    -60.03280109	    -20.57343619	    -10.39695484	     24.67414649	     26.95971463	     13.24059112	     -4.04133782	    -18.72653277	     -3.76481203	     -4.70028547	     18.78837769	      7.96807077	    -10.40460794	     -4.06705310
      7.16000000	    -11.86719117	      8.31420131	      2.88074478	     -1.59770571	     -0.02661919	      2.03144574	     20.71964620	    -13.33667826	     -9.66079145	    -60.88599386	    -19.41020091	    -10.89359338	     24.71969056	     25.45006554	     13.29735574	     -4.03618188	    -17.94074731	     -3.24586893	     -4.51761238	     18.85199417	      7.72164510	    -10.37947116	     -4.20474031
      7.17000000	    -11.74965808	      8.33778787	      2.70301421	     -1.58540999	     -0.02470498	      2.03085590	     22.37651183	    -13.10889043	     -8.82063266	    -61.44636284	    -18.25922534	    -11.12562547	     24.93705963	     24.02080776	     13.33825664	     -3.92042883	    -17.11462794	     -2.78089901	     -4.45727773	     18.77965851	      7.56540702	    -10.30644010	     -4.37567784
      7.18000000	    -11.68306287	      8.31933725	      2.51261360	     -1.57320645	     -0.02298041	      2.03027044	     24.02113601	    -12.81433690	     -8.04257997	    -61.65061060	    -17.23516481	    -11.22558046	     26.64669888	     22.66380476	     13.35236581	     -3.72662910	    -16.34255547	     -2.08573340	     -4.35398801	     17.40357627	      7.46768040	    -10.19359421	     -4.49588873
      7.19000000	    -11.57224974	      8.20179518	      2.39705629	     -1.56110097	     -0.02125425	      2.02967894	     25.48762578	    -12.40001014	     -7.41579562	    -61.52696530	    -15.90648675	    -10.99676026	     27.23210212	     21.25391918	     13.28217516	     -3.48582810	    -15.51841625	     -1.68198461	     -4.35384738	     17.26020736	      7.29929541	     -9.99667429	     -4.71988680
      7.20000000	    -11.36468580	      7.94870580	      2.30228546	     -1.54903398	     -0.01937225	      2.02899407	     26.67743879	    -11.85232458	     -6.95398002	    -60.91896624	    -14.94937577	    -10.85891269	     29.80763199	     19.73448263	     13.08873645	     -3.15326737	    -14.70043253	     -1.19063831	     -4.33783365	     16.39564369	      7.02424305	     -9.64998573	     -4.92958218
      7.21000000	    -11.40976304	      7.57676225	      2.40546323	     -1.53727777	     -0.01794875	      2.02820708	     28.05343572	    -11.24656017	     -6.71713996	    -60.13638102	    -13.71182855	    -10.48514713	     30.19634593	     18.58513988	     12.79482388	     -2.80529892	    -14.03272343	     -0.69930322	     -4.11654865	     16.41513015	      6.95594264	     -9.23442677	     -5.33795701
      7.22000000	    -11.35307872	      7.17349961	      2.55502149	     -1.52560310	     -0.01646933	      2.02738475	     29.18400686	    -10.66706276	     -6.66363724	    -59.02282013	    -12.55003062	    -10.10551291	     30.61870674	     17.32494463	     12.46421516	     -2.49377477	    -13.34122437	     -0.28351023	     -3.85830724	     16.42615505	      6.75791421	     -8.79826360	     -5.77239768
      7.23000000	    -11.27751870	      6.73128492	      2.76286006	     -1.51398505	     -0.01509510	      2.02644566	     30.18273569	    -10.11495545	     -6.77771341	    -57.62788022	    -11.57636260	     -9.82685382	     30.80847580	     16.04498554	     12.10109959	     -2.13349965	    -12.63903612	      0.12152574	     -3.60913951	     16.47878457	      6.52847462	     -8.31413176	     -6.23782381
      7.24000000	    -11.15965104	      6.26760374	      3.03317966	     -1.50238888	     -0.01380871	      2.02545002	     31.01669315	     -9.61857539	     -7.09204598	    -55.97126901	    -10.70988399	     -9.64962137	     30.60394367	     14.71421924	     11.71580314	     -1.75096639	    -11.91597529	      0.48374835	     -3.37052049	     16.55359876	      6.24775825	     -7.81666751	     -6.75116941
      7.25000000	    -11.01385679	      5.83229375	      3.25794658	     -1.49084354	     -0.01270150	      2.02462421	     31.76272447	     -9.10855360	     -7.37422695	    -54.16811667	     -9.65224196	     -9.41982782	     28.16503920	     13.34762525	     11.32781933	     -1.37294250	    -11.15277496	      0.79668195	     -3.20380092	     16.66893107	      5.94161830	     -7.34933499	     -7.16565993
      7.26000000	    -10.96621958	      5.35415310	      3.60217977	     -1.47939868	     -0.01187009	      2.02366531	     32.47277572	     -8.66732845	     -7.88270724	    -52.05493732	     -8.95499873	     -9.46371508	     27.53872277	     12.12049600	     10.91340165	     -0.90423485	    -10.43999617	      1.13934203	     -3.03187417	     16.66799423	      5.72444907	     -6.85202270	     -7.69914136
      7.27000000	    -10.69215827	      4.96606966	      3.72306316	     -1.46790027	     -0.01103962	      2.02309245	     32.88904740	     -8.15571201	     -8.14106562	    -49.81673109	     -7.82946656	     -9.17248295	     24.53338184	     10.59556693	     10.52168404	     -0.58107750	     -9.60066021	      1.44611870	     -3.01824821	     16.34049489	      5.29315908	     -6.41189788	     -7.94065321
      7.28000000	    -10.80974656	      4.51564361	      4.01198776	     -1.45654590	     -0.01082299	      2.02246635	     33.63426792	     -7.68716254	     -8.56974238	    -47.39224496	     -6.89947892	     -8.97561473	     21.47737272	      9.59386027	     10.08907659	     -0.20627216	     -8.93495583	      1.89053362	     -2.82433158	     15.89671994	      5.26502696	     -5.96480583	     -8.33675597
      7.29000000	    -10.72109313	      4.11398578	      4.22177373	     -1.44513035	     -0.01059500	      2.02190485	     34.04105773	     -7.27408307	     -9.02771095	    -44.71755907	     -6.14126618	     -8.55748611	     20.44980787	      8.34036426	      9.67268741	      0.07087352	     -8.19434182	      2.23847607	     -2.69912146	     15.70887897	      5.02903588	     -5.53534886	     -8.62626728
      7.30000000	    -10.70486351	      3.72159559	      4.40420586	     -1.43371267	     -0.01067829	      2.02146822	     34.46272737	     -6.87523262	     -9.53401378	    -41.91260631	     -5.43267693	     -7.96152582	     19.38527322	      7.21753951	      9.24703864	      0.22930008	     -7.53918587	      2.66231774	     -2.50254346	     15.50986323	      4.87696252	     -5.11907333	     -8.89119770
